<svg xmlns="http://www.w3.org/2000/svg" xmlns:xlink="http://www.w3.org/1999/xlink" width="640" zoomAndPan="magnify" viewBox="0 0 480 95.999999" height="128" preserveAspectRatio="xMidYMid meet" version="1.2"><defs><clipPath id="63a82b4087"><path d="M 18.300781 10.8125 L 92.550781 10.8125 L 92.550781 85.0625 L 18.300781 85.0625 Z M 18.300781 10.8125 "/></clipPath></defs><g id="463e058ea9"><g clip-rule="nonzero" clip-path="url(#63a82b4087)"><path style=" stroke:none;fill-rule:nonzero;fill:#000000;fill-opacity:1;" d="M 55.425781 10.8125 C 47.175781 10.8125 39.339844 13.488281 32.902344 18.421875 L 32.902344 17.363281 C 32.902344 16.15625 31.925781 15.179688 30.71875 15.179688 C 29.511719 15.179688 28.535156 16.15625 28.535156 17.363281 C 28.535156 17.378906 28.535156 23.25 28.535156 23.234375 C 28.535156 25.167969 30.886719 26.152344 32.261719 24.777344 C 38.449219 18.589844 46.675781 15.179688 55.425781 15.179688 C 73.488281 15.179688 88.183594 29.875 88.183594 47.9375 C 88.183594 66 73.488281 80.695312 55.425781 80.695312 C 37.363281 80.695312 22.667969 66 22.667969 47.9375 C 22.667969 42.910156 23.777344 38.089844 25.960938 33.609375 C 26.488281 32.523438 26.039062 31.214844 24.957031 30.6875 C 23.871094 30.160156 22.5625 30.609375 22.035156 31.695312 C 19.558594 36.777344 18.300781 42.242188 18.300781 47.9375 C 18.300781 68.457031 34.90625 85.0625 55.425781 85.0625 C 75.945312 85.0625 92.550781 68.457031 92.550781 47.9375 C 92.550781 27.417969 75.945312 10.8125 55.425781 10.8125 Z M 55.425781 10.8125 "/></g><path style=" stroke:none;fill-rule:nonzero;fill:#000000;fill-opacity:1;" d="M 55.425781 74.144531 C 69.875 74.144531 81.632812 62.386719 81.632812 47.9375 C 81.632812 33.488281 69.875 21.730469 55.425781 21.730469 C 40.976562 21.730469 29.21875 33.488281 29.21875 47.9375 C 29.21875 62.386719 40.976562 74.144531 55.425781 74.144531 Z M 43.144531 54.96875 L 53.242188 46.886719 L 53.242188 34.835938 C 53.242188 33.628906 54.21875 32.652344 55.425781 32.652344 C 56.632812 32.652344 57.609375 33.628906 57.609375 34.835938 L 57.609375 47.9375 C 57.609375 48.601562 57.308594 49.226562 56.789062 49.644531 L 45.871094 58.378906 C 44.933594 59.128906 43.558594 58.980469 42.800781 58.035156 C 42.046875 57.09375 42.203125 55.722656 43.144531 54.96875 Z M 43.144531 54.96875 "/><g style="fill:#000000;fill-opacity:1;"><g transform="translate(103.574316, 66.374999)"><path style="stroke:none" d="M 3.28125 -37.8125 L 13.140625 -37.8125 L 23.5625 -12.40625 L 24 -12.40625 L 34.421875 -37.8125 L 44.28125 -37.8125 L 44.28125 0 L 36.53125 0 L 36.53125 -24.609375 L 36.21875 -24.609375 L 26.421875 -0.1875 L 21.140625 -0.1875 L 11.359375 -24.703125 L 11.046875 -24.703125 L 11.046875 0 L 3.28125 0 Z M 3.28125 -37.8125 "/></g></g><g style="fill:#000000;fill-opacity:1;"><g transform="translate(151.618957, 66.374999)"><path style="stroke:none" d="M 16.0625 0.546875 C 13.15625 0.546875 10.648438 -0.046875 8.546875 -1.234375 C 6.441406 -2.421875 4.820312 -4.101562 3.6875 -6.28125 C 2.5625 -8.46875 2 -11.054688 2 -14.046875 C 2 -16.960938 2.5625 -19.523438 3.6875 -21.734375 C 4.820312 -23.941406 6.421875 -25.660156 8.484375 -26.890625 C 10.546875 -28.117188 12.96875 -28.734375 15.75 -28.734375 C 18.25 -28.734375 20.503906 -28.203125 22.515625 -27.140625 C 24.523438 -26.085938 26.117188 -24.492188 27.296875 -22.359375 C 28.484375 -20.222656 29.078125 -17.546875 29.078125 -14.328125 L 29.078125 -12.171875 L 9.765625 -12.171875 L 9.765625 -12.15625 C 9.765625 -10.03125 10.34375 -8.359375 11.5 -7.140625 C 12.65625 -5.921875 14.21875 -5.3125 16.1875 -5.3125 C 17.507812 -5.3125 18.648438 -5.585938 19.609375 -6.140625 C 20.566406 -6.703125 21.242188 -7.523438 21.640625 -8.609375 L 28.921875 -8.125 C 28.367188 -5.488281 26.960938 -3.382812 24.703125 -1.8125 C 22.453125 -0.238281 19.570312 0.546875 16.0625 0.546875 Z M 9.765625 -17.046875 L 21.671875 -17.046875 C 21.660156 -18.734375 21.117188 -20.125 20.046875 -21.21875 C 18.984375 -22.3125 17.59375 -22.859375 15.875 -22.859375 C 14.132812 -22.859375 12.703125 -22.289062 11.578125 -21.15625 C 10.453125 -20.03125 9.847656 -18.660156 9.765625 -17.046875 Z M 9.765625 -17.046875 "/></g></g><g style="fill:#000000;fill-opacity:1;"><g transform="translate(182.694723, 66.374999)"><path style="stroke:none" d="M 3.140625 0 L 3.140625 -28.359375 L 10.640625 -28.359375 L 10.640625 -23.359375 L 10.96875 -23.359375 C 11.5625 -25.035156 12.550781 -26.347656 13.9375 -27.296875 C 15.320312 -28.253906 16.96875 -28.734375 18.875 -28.734375 C 20.820312 -28.734375 22.476562 -28.25 23.84375 -27.28125 C 25.207031 -26.3125 26.117188 -25.003906 26.578125 -23.359375 L 26.875 -23.359375 C 27.445312 -24.984375 28.492188 -26.285156 30.015625 -27.265625 C 31.535156 -28.242188 33.335938 -28.734375 35.421875 -28.734375 C 38.066406 -28.734375 40.21875 -27.890625 41.875 -26.203125 C 43.53125 -24.523438 44.359375 -22.148438 44.359375 -19.078125 L 44.359375 0 L 36.5 0 L 36.5 -17.53125 C 36.5 -19.101562 36.082031 -20.28125 35.25 -21.0625 C 34.414062 -21.851562 33.367188 -22.25 32.109375 -22.25 C 30.679688 -22.25 29.566406 -21.789062 28.765625 -20.875 C 27.960938 -19.96875 27.5625 -18.785156 27.5625 -17.328125 L 27.5625 0 L 19.9375 0 L 19.9375 -17.6875 C 19.9375 -19.082031 19.539062 -20.191406 18.75 -21.015625 C 17.957031 -21.835938 16.914062 -22.25 15.625 -22.25 C 14.320312 -22.25 13.222656 -21.769531 12.328125 -20.8125 C 11.441406 -19.863281 11 -18.601562 11 -17.03125 L 11 0 Z M 3.140625 0 "/></g></g><g style="fill:#000000;fill-opacity:1;"><g transform="translate(230.111575, 66.374999)"><path style="stroke:none" d="M 15.953125 0.546875 C 13.085938 0.546875 10.609375 -0.0625 8.515625 -1.28125 C 6.429688 -2.507812 4.820312 -4.222656 3.6875 -6.421875 C 2.5625 -8.617188 2 -11.171875 2 -14.078125 C 2 -17.003906 2.5625 -19.566406 3.6875 -21.765625 C 4.820312 -23.960938 6.429688 -25.671875 8.515625 -26.890625 C 10.609375 -28.117188 13.085938 -28.734375 15.953125 -28.734375 C 18.816406 -28.734375 21.289062 -28.117188 23.375 -26.890625 C 25.46875 -25.671875 27.082031 -23.960938 28.21875 -21.765625 C 29.351562 -19.566406 29.921875 -17.003906 29.921875 -14.078125 C 29.921875 -11.171875 29.351562 -8.617188 28.21875 -6.421875 C 27.082031 -4.222656 25.46875 -2.507812 23.375 -1.28125 C 21.289062 -0.0625 18.816406 0.546875 15.953125 0.546875 Z M 15.984375 -5.546875 C 17.929688 -5.546875 19.40625 -6.359375 20.40625 -7.984375 C 21.414062 -9.609375 21.921875 -11.65625 21.921875 -14.125 C 21.921875 -16.601562 21.414062 -18.65625 20.40625 -20.28125 C 19.40625 -21.914062 17.929688 -22.734375 15.984375 -22.734375 C 14.003906 -22.734375 12.507812 -21.914062 11.5 -20.28125 C 10.488281 -18.65625 9.984375 -16.601562 9.984375 -14.125 C 9.984375 -11.65625 10.488281 -9.609375 11.5 -7.984375 C 12.507812 -6.359375 14.003906 -5.546875 15.984375 -5.546875 Z M 15.984375 -5.546875 "/></g></g><g style="fill:#000000;fill-opacity:1;"><g transform="translate(262.018239, 66.374999)"><path style="stroke:none" d="M 3.140625 0 L 3.140625 -28.359375 L 10.765625 -28.359375 L 10.765625 -23.421875 L 11.0625 -23.421875 C 11.582031 -25.179688 12.445312 -26.507812 13.65625 -27.40625 C 14.863281 -28.3125 16.269531 -28.765625 17.875 -28.765625 C 18.632812 -28.765625 19.34375 -28.671875 20 -28.484375 C 20.65625 -28.304688 21.238281 -28.054688 21.75 -27.734375 L 19.390625 -21.234375 C 19.015625 -21.421875 18.609375 -21.578125 18.171875 -21.703125 C 17.742188 -21.835938 17.257812 -21.90625 16.71875 -21.90625 C 15.125 -21.90625 13.773438 -21.363281 12.671875 -20.28125 C 11.578125 -19.195312 11.019531 -17.785156 11 -16.046875 L 11 0 Z M 3.140625 0 "/></g></g><g style="fill:#000000;fill-opacity:1;"><g transform="translate(284.748058, 66.374999)"><path style="stroke:none" d="M 7.71875 11.046875 C 6.59375 11.046875 5.632812 10.945312 4.84375 10.75 C 4.050781 10.5625 3.429688 10.367188 2.984375 10.171875 L 4.765625 4.078125 C 6.148438 4.492188 7.320312 4.601562 8.28125 4.40625 C 9.238281 4.21875 9.992188 3.472656 10.546875 2.171875 L 11.0625 0.8125 L 0.890625 -28.359375 L 9.15625 -28.359375 L 15.03125 -7.53125 L 15.328125 -7.53125 L 21.25 -28.359375 L 29.578125 -28.359375 L 18.5 3.25 C 17.695312 5.507812 16.421875 7.375 14.671875 8.84375 C 12.921875 10.3125 10.601562 11.046875 7.71875 11.046875 Z M 7.71875 11.046875 "/></g></g><g style="fill:#000000;fill-opacity:1;"><g transform="translate(315.214495, 66.374999)"><path style="stroke:none" d="M 3.28125 0 L 3.28125 -37.8125 L 18.203125 -37.8125 C 21.078125 -37.8125 23.519531 -37.265625 25.53125 -36.171875 C 27.550781 -35.085938 29.09375 -33.582031 30.15625 -31.65625 C 31.226562 -29.726562 31.765625 -27.507812 31.765625 -25 C 31.765625 -22.488281 31.222656 -20.273438 30.140625 -18.359375 C 29.054688 -16.453125 27.488281 -14.957031 25.4375 -13.875 C 23.382812 -12.800781 20.90625 -12.265625 18 -12.265625 L 11.28125 -12.265625 L 11.28125 0 Z M 11.28125 -18.671875 L 16.71875 -18.671875 C 19 -18.671875 20.703125 -19.257812 21.828125 -20.4375 C 22.960938 -21.613281 23.53125 -23.132812 23.53125 -25 C 23.53125 -26.882812 22.960938 -28.398438 21.828125 -29.546875 C 20.703125 -30.703125 18.984375 -31.28125 16.671875 -31.28125 L 11.28125 -31.28125 Z M 11.28125 -18.671875 "/></g></g><g style="fill:#000000;fill-opacity:1;"><g transform="translate(348.893746, 66.374999)"><path style="stroke:none" d="M 11 -37.8125 L 11 0 L 3.140625 0 L 3.140625 -37.8125 Z M 11 -37.8125 "/></g></g><g style="fill:#000000;fill-opacity:1;"><g transform="translate(363.037567, 66.374999)"><path style="stroke:none" d="M 21.328125 -12.078125 L 21.328125 -28.359375 L 29.1875 -28.359375 L 29.1875 0 L 21.640625 0 L 21.640625 -5.15625 L 21.34375 -5.15625 C 20.707031 -3.488281 19.644531 -2.148438 18.15625 -1.140625 C 16.675781 -0.128906 14.867188 0.375 12.734375 0.375 C 9.878906 0.375 7.566406 -0.578125 5.796875 -2.484375 C 4.035156 -4.390625 3.148438 -6.992188 3.140625 -10.296875 L 3.140625 -28.359375 L 11 -28.359375 L 11 -11.703125 C 11.019531 -10.035156 11.472656 -8.710938 12.359375 -7.734375 C 13.242188 -6.765625 14.429688 -6.28125 15.921875 -6.28125 C 17.335938 -6.28125 18.59375 -6.769531 19.6875 -7.75 C 20.789062 -8.738281 21.335938 -10.179688 21.328125 -12.078125 Z M 21.328125 -12.078125 "/></g></g><g style="fill:#000000;fill-opacity:1;"><g transform="translate(395.36891, 66.374999)"><path style="stroke:none" d="M 15.921875 11.046875 C 12.097656 11.046875 9.097656 10.289062 6.921875 8.78125 C 4.742188 7.28125 3.421875 5.460938 2.953125 3.328125 L 10.234375 2.34375 C 10.546875 3.101562 11.164062 3.800781 12.09375 4.4375 C 13.03125 5.070312 14.367188 5.390625 16.109375 5.390625 C 17.816406 5.390625 19.226562 4.984375 20.34375 4.171875 C 21.457031 3.359375 22.015625 2.023438 22.015625 0.171875 L 22.015625 -5.015625 L 21.671875 -5.015625 C 21.160156 -3.847656 20.25 -2.785156 18.9375 -1.828125 C 17.632812 -0.878906 15.851562 -0.40625 13.59375 -0.40625 C 11.457031 -0.40625 9.519531 -0.898438 7.78125 -1.890625 C 6.039062 -2.890625 4.65625 -4.410156 3.625 -6.453125 C 2.601562 -8.503906 2.09375 -11.097656 2.09375 -14.234375 C 2.09375 -17.460938 2.617188 -20.144531 3.671875 -22.28125 C 4.722656 -24.425781 6.117188 -26.035156 7.859375 -27.109375 C 9.597656 -28.191406 11.503906 -28.734375 13.578125 -28.734375 C 15.160156 -28.734375 16.488281 -28.460938 17.5625 -27.921875 C 18.632812 -27.390625 19.5 -26.726562 20.15625 -25.9375 C 20.820312 -25.15625 21.328125 -24.375 21.671875 -23.59375 L 21.96875 -23.59375 L 21.96875 -28.359375 L 29.78125 -28.359375 L 29.78125 0.28125 C 29.78125 2.625 29.1875 4.597656 28 6.203125 C 26.8125 7.804688 25.175781 9.015625 23.09375 9.828125 C 21.019531 10.640625 18.628906 11.046875 15.921875 11.046875 Z M 16.078125 -6.3125 C 17.972656 -6.3125 19.441406 -7.015625 20.484375 -8.421875 C 21.523438 -9.828125 22.046875 -11.78125 22.046875 -14.28125 C 22.046875 -16.757812 21.53125 -18.742188 20.5 -20.234375 C 19.46875 -21.722656 17.992188 -22.46875 16.078125 -22.46875 C 14.140625 -22.46875 12.660156 -21.703125 11.640625 -20.171875 C 10.628906 -18.648438 10.125 -16.6875 10.125 -14.28125 C 10.125 -11.820312 10.632812 -9.878906 11.65625 -8.453125 C 12.675781 -7.023438 14.148438 -6.3125 16.078125 -6.3125 Z M 16.078125 -6.3125 "/></g></g><g style="fill:#000000;fill-opacity:1;"><g transform="translate(428.291111, 66.374999)"><path style="stroke:none" d="M 3.140625 0 L 3.140625 -28.359375 L 11 -28.359375 L 11 0 Z M 7.09375 -32.015625 C 5.925781 -32.015625 4.925781 -32.40625 4.09375 -33.1875 C 3.257812 -33.96875 2.84375 -34.910156 2.84375 -36.015625 C 2.84375 -37.109375 3.257812 -38.039062 4.09375 -38.8125 C 4.925781 -39.59375 5.925781 -39.984375 7.09375 -39.984375 C 8.257812 -39.984375 9.257812 -39.59375 10.09375 -38.8125 C 10.9375 -38.039062 11.359375 -37.109375 11.359375 -36.015625 C 11.359375 -34.910156 10.9375 -33.96875 10.09375 -33.1875 C 9.257812 -32.40625 8.257812 -32.015625 7.09375 -32.015625 Z M 7.09375 -32.015625 "/></g></g><g style="fill:#000000;fill-opacity:1;"><g transform="translate(442.434932, 66.374999)"><path style="stroke:none" d="M 11 -16.390625 L 11 0 L 3.140625 0 L 3.140625 -28.359375 L 10.640625 -28.359375 L 10.640625 -23.359375 L 10.96875 -23.359375 C 11.601562 -25.003906 12.65625 -26.3125 14.125 -27.28125 C 15.601562 -28.25 17.394531 -28.734375 19.5 -28.734375 C 22.457031 -28.734375 24.828125 -27.78125 26.609375 -25.875 C 28.390625 -23.976562 29.28125 -21.375 29.28125 -18.0625 L 29.28125 0 L 21.421875 0 L 21.421875 -16.65625 C 21.429688 -18.394531 20.988281 -19.753906 20.09375 -20.734375 C 19.195312 -21.710938 17.957031 -22.203125 16.375 -22.203125 C 14.789062 -22.203125 13.503906 -21.691406 12.515625 -20.671875 C 11.523438 -19.660156 11.019531 -18.234375 11 -16.390625 Z M 11 -16.390625 "/></g></g></g></svg>